<svg fill="#49a570" height="511pt" viewBox="-46 1 511 511.999" width="511pt" xmlns="http://www.w3.org/2000/svg"><path d="m415.519531 75.855469-71.445312-71.445313c-.304688-.304687-.523438-.5-.679688-.617187-2.742187-2.429688-6.277343-3.792969-9.964843-3.792969h-266.4375c-8.316407 0-15.054688 6.742188-15.054688 15.054688v305.875c-30.714844 17.679687-51.4375 50.839843-51.4375 88.75 0 56.417968 45.898438 102.320312 102.320312 102.320312 36.304688 0 68.25-19.007812 86.414063-47.589844h215.640625c8.316406 0 15.054688-6.742187 15.054688-15.058594v-362.847656c.003906-3.996094-1.582032-7.824218-4.410157-10.648437zm-47.105469-4.519531-19.929687-.0625v-19.867188zm-265.59375 410.550781c-39.816406 0-72.207031-32.390625-72.207031-72.207031 0-39.816407 32.390625-72.207032 72.207031-72.207032 39.816407 0 72.207032 32.390625 72.207032 72.207032.003906 39.816406-32.390625 72.207031-72.207032 72.207031zm287-47.589844h-187.679687c1.957031-7.886719 3.003906-16.132813 3.003906-24.617187 0-56.421876-45.902343-102.320313-102.324219-102.320313-7.113281 0-14.0625.730469-20.769531 2.121094v-279.367188h236.324219v56.171875c0 8.296875 6.710938 15.027344 15.007812 15.054688h56.4375zm0 0"/><path d="m159.324219 378.476562c-5.253907-6.449218-14.734375-7.417968-21.183594-2.167968l-51.171875 41.660156-21.492188-24.78125c-5.449218-6.28125-14.957031-6.957031-21.238281-1.511719-6.28125 5.449219-6.960937 14.957031-1.511719 21.238281l31.054688 35.808594c2.972656 3.429688 7.160156 5.191406 11.382812 5.191406 3.34375 0 6.707032-1.109374 9.496094-3.378906l62.492188-50.875c6.445312-5.25 7.417968-14.734375 2.171875-21.183594zm0 0"/><path d="m142.300781 165.71875h112.082031c8.3125 0 15.054688-6.742188 15.054688-15.058594s-6.742188-15.054687-15.054688-15.054687h-112.082031c-8.3125 0-15.054687 6.738281-15.054687 15.054687s6.742187 15.058594 15.054687 15.058594zm0 0"/><path d="m323.640625 195.828125h-181.339844c-8.3125 0-15.054687 6.742187-15.054687 15.058594 0 8.3125 6.742187 15.054687 15.054687 15.054687h181.339844c8.316406 0 15.054687-6.742187 15.054687-15.054687 0-8.316407-6.738281-15.058594-15.054687-15.058594zm0 0"/><path d="m323.640625 256.054688h-181.339844c-8.3125 0-15.054687 6.742187-15.054687 15.054687 0 8.316406 6.742187 15.058594 15.054687 15.058594h181.339844c8.316406 0 15.054687-6.742188 15.054687-15.058594 0-8.3125-6.738281-15.054687-15.054687-15.054687zm0 0"/></svg>