<svg id="Capa_1" enable-background="new 0 0 512 512" height="512" viewBox="0 0 512 512" width="512" xmlns="http://www.w3.org/2000/svg"><g><path d="m256 0c-74.443 0-135 61.557-135 136s60.557 135 135 135 135-60.557 135-135-60.557-136-135-136z" fill="#ffdf40"/><path d="m391 136c0-74.443-60.557-136-135-136v271c74.443 0 135-60.557 135-135z" fill="#ffbe40"/><path d="m286 91h30v30h-30z" fill="#353d4d"/><path d="m196 91h30v30h-30z" fill="#515866"/><path d="m496.496 181.002c-24.576.165-45.139 21.597-46.582 46.133-.906 15.397-2.549 30.786-5.175 45.672l-14.567 14.739-15.894-15.285c-77.715 6.443-130.403 65.256-138.527 138.869-3.151 28.552-4.751 58.073-4.751 85.87v15h120v-15c0-14.443 10.723-25.404 31.274-43.202 35.332-30.586 89.726-76.831 89.726-197.798v-75s-15.335 0-15.504.002z" fill="#fb9"/><path d="m414.278 272.262c-6.055 31.276-22.769 78.498-45.251 90.452l13.682 26.704c33.819-16.91 54.9-76.4 62.031-116.611-10.274-1.179-20.409-1.38-30.462-.545z" fill="#ff9680"/><path d="m15.504 181.002c24.576.165 45.139 21.597 46.582 46.133.906 15.397 2.549 30.786 5.175 45.672l14.567 14.739 15.894-15.285c77.715 6.443 130.403 65.256 138.527 138.869 3.151 28.552 4.751 58.073 4.751 85.87v15h-120v-15c0-14.443-10.723-25.404-31.274-43.202-35.332-30.586-89.726-76.831-89.726-197.798v-75s15.335 0 15.504.002z" fill="#ffd9b3"/><path d="m97.722 272.262c6.055 31.276 22.769 78.498 45.251 90.452l-13.682 26.704c-33.819-16.91-54.9-76.4-62.031-116.611 10.274-1.179 20.409-1.38 30.462-.545z" fill="#fb9"/><path d="m297.47 153.476c-7.09 16.728-23.365 27.524-41.47 27.524s-34.38-10.796-41.47-27.524l-27.627 11.719c11.792 27.817 38.921 45.805 69.097 45.805s57.29-17.974 69.097-45.806z" fill="#515866"/><path d="m325.097 165.194-27.627-11.719c-7.09 16.729-23.365 27.525-41.47 27.525v30c30.176 0 57.29-17.974 69.097-45.806z" fill="#353d4d"/></g></svg>